<?xml version="1.0" standalone="no"?>
<!DOCTYPE svg PUBLIC "-//W3C//DTD SVG 20010904//EN"
 "http://www.w3.org/TR/2001/REC-SVG-20010904/DTD/svg10.dtd">
<svg version="1.0" xmlns="http://www.w3.org/2000/svg"
 width="5000.000000pt" height="3751.000000pt" viewBox="0 0 5000.000000 3751.000000"
 preserveAspectRatio="xMidYMid meet">

<g transform="translate(0.000000,3751.000000) scale(0.100000,-0.100000)"
fill="#000000" stroke="none">
<path d="M28426 32084 c-17 -44 1 -378 29 -544 41 -239 102 -362 193 -390 21
-6 42 -13 49 -15 8 -3 2 -27 -21 -77 -67 -144 -128 -381 -156 -593 -6 -49 -13
-100 -15 -111 l-5 -22 -65 24 c-100 36 -110 34 -134 -30 -19 -51 -56 -225 -49
-231 2 -1 40 -15 86 -29 l82 -28 1 -46 c1 -26 3 -39 6 -29 8 29 26 20 19 -10
-4 -16 -9 -88 -13 -161 -5 -108 -8 -130 -19 -121 -10 8 -12 28 -8 73 l5 61
-36 -74 c-83 -173 -90 -201 -89 -361 1 -141 14 -266 54 -495 10 -60 21 -159
24 -220 16 -284 81 -849 111 -964 7 -29 24 -65 37 -79 23 -25 251 -139 383
-192 39 -15 96 -33 128 -40 31 -7 57 -16 57 -19 0 -3 -10 -50 -22 -104 l-22
-98 26 -22 c53 -46 138 -160 310 -417 97 -146 190 -280 205 -298 l28 -33 95
68 c52 38 133 98 179 133 680 522 872 660 1013 731 35 17 65 33 67 35 2 2 -21
30 -52 62 -151 159 -214 343 -224 658 -5 141 8 384 24 450 4 17 17 24 62 33
309 61 533 552 360 790 l-31 43 96 232 c159 386 250 654 287 839 l13 68 47
-47 47 -47 10 39 c37 146 6 385 -68 522 -27 50 -27 52 -7 52 11 0 76 -23 145
-50 68 -28 126 -49 128 -48 6 6 -143 205 -186 248 -25 25 -83 69 -130 98 -47
28 -94 59 -105 67 -19 15 -19 16 6 40 13 14 58 43 99 66 l75 40 -74 -6 c-41
-4 -119 -15 -175 -26 -133 -25 -150 -24 -199 10 -194 133 -777 342 -1252 450
-407 92 -970 160 -1321 161 -84 0 -103 -3 -108 -16z m369 -2285 c40 -77 56
-249 24 -249 -11 0 -113 22 -117 25 -1 1 4 28 12 60 9 31 18 97 22 146 8 101
16 103 59 18z m-131 15 c9 -23 7 -59 -4 -89 -9 -23 -13 -25 -25 -15 -17 14
-20 72 -5 101 13 23 26 24 34 3z m922 -100 c-14 -37 -28 -163 -24 -226 2 -37
2 -68 0 -68 -2 0 -12 4 -22 10 -16 8 -17 15 -9 42 5 18 12 84 16 146 5 102 8
112 26 112 13 0 17 -5 13 -16z m478 -149 c54 -70 88 -187 72 -248 l-6 -24 -87
14 c-48 7 -88 15 -90 17 -2 1 3 21 11 43 16 46 36 166 36 218 0 32 2 35 18 26
11 -6 31 -26 46 -46z m-164 -40 c0 -41 -27 -80 -45 -65 -29 24 -24 102 8 122
17 11 37 -20 37 -57z m-1201 -1030 c87 -28 341 -103 511 -152 l35 -10 -40 -17
c-82 -36 -139 -42 -229 -23 -92 19 -351 101 -371 117 -7 6 -18 30 -24 54 -6
24 -14 52 -18 61 -5 15 -3 17 12 11 10 -3 66 -22 124 -41z"/>
<path d="M17870 31703 c-310 -47 -588 -165 -717 -306 -83 -90 -143 -258 -143
-403 l0 -71 -60 -7 c-81 -9 -204 -72 -282 -144 -86 -80 -152 -171 -208 -287
-68 -139 -90 -224 -98 -380 -12 -207 7 -291 106 -490 92 -185 163 -285 425
-595 59 -69 127 -162 153 -207 25 -46 48 -83 51 -83 2 0 18 16 35 36 115 131
309 102 484 -71 67 -66 89 -97 127 -175 26 -54 52 -125 60 -164 15 -78 20 -77
36 8 35 189 -8 383 -174 782 -30 72 -55 140 -55 150 0 10 22 52 50 93 62 95
111 202 146 317 25 80 27 104 28 244 0 140 -3 163 -27 243 -37 119 -94 229
-172 332 -36 47 -61 85 -57 85 15 0 106 -62 227 -154 161 -123 166 -126 223
-126 169 0 686 97 962 181 257 77 423 150 571 250 157 105 236 201 285 344 30
88 44 250 27 315 -9 32 -12 35 -39 30 -114 -19 -304 10 -687 106 -297 74 -551
127 -720 149 -147 19 -428 18 -557 -2z"/>
<path d="M19675 29826 c-186 -39 -374 -103 -402 -137 -16 -20 12 -95 77 -210
43 -74 56 -90 72 -86 15 4 18 2 12 -11 -4 -9 -9 -71 -10 -137 -2 -102 -1 -111
6 -58 8 59 63 183 80 183 4 0 10 -37 13 -82 6 -81 31 -196 45 -210 9 -8 126
29 211 67 l63 29 -7 95 c-3 53 -12 124 -20 159 -10 51 -10 62 1 62 7 0 15 -12
17 -27 2 -16 5 2 6 39 l1 67 48 14 47 14 -3 79 c-1 43 -5 100 -8 127 l-6 47
-66 -1 c-37 0 -116 -11 -177 -23z m-41 -538 c9 -37 2 -88 -13 -88 -12 0 -31
56 -31 90 0 53 30 52 44 -2z"/>
<path d="M18615 29583 c-230 -29 -685 -160 -725 -208 -8 -10 -9 -46 -3 -127 8
-113 8 -113 33 -110 25 3 266 67 297 79 8 3 -1 -15 -20 -40 -56 -73 -79 -146
-83 -262 l-4 -100 15 60 c18 68 51 128 92 168 l30 28 11 -88 c11 -85 33 -174
50 -201 7 -11 29 -8 109 12 56 14 141 39 189 56 49 16 90 30 91 30 2 0 3 30 3
68 -1 64 -20 198 -35 235 -5 13 -2 17 13 17 15 0 22 -8 25 -27 2 -16 5 0 6 35
1 50 4 62 17 62 15 0 16 13 11 118 -7 154 -28 206 -79 201 -7 -1 -26 -4 -43
-6z m-209 -247 c-4 -19 -12 -36 -20 -39 -10 -4 -9 4 3 38 18 51 26 51 17 1z
m14 -376 c0 -47 -21 -68 -44 -45 -19 20 -22 95 -3 114 18 18 47 -23 47 -69z"/>
<path d="M19259 28906 c18 -19 161 -390 178 -461 4 -17 -9 -27 -74 -58 -96
-48 -235 -128 -230 -133 5 -5 303 96 371 126 l46 19 -6 43 c-29 189 -163 434
-261 474 -45 19 -50 18 -24 -10z"/>
<path d="M17265 28738 c-72 -27 -125 -97 -125 -164 0 -25 33 -114 42 -114 2 0
2 30 0 68 -4 80 15 119 73 146 134 64 299 -75 398 -334 27 -73 32 -80 35 -54
5 50 -26 174 -62 249 -65 136 -153 204 -271 211 -33 2 -73 -1 -90 -8z"/>
<path d="M18723 28032 c-8 -5 7 -30 47 -79 104 -126 244 -224 383 -268 210
-67 345 2 463 237 l35 69 -28 -7 c-16 -3 -44 -10 -63 -15 -97 -24 -367 -61
-455 -62 -96 -2 -102 -1 -160 32 -33 18 -79 49 -102 67 -41 34 -91 44 -120 26z"/>
<path d="M17714 28002 c-20 -17 -21 -31 -27 -207 -3 -105 -13 -230 -21 -280
-9 -49 -18 -96 -19 -104 -3 -20 112 -90 211 -129 176 -69 323 -102 672 -147
321 -42 551 -45 365 -5 -156 33 -351 116 -491 208 -235 155 -420 340 -595 595
-33 48 -63 87 -67 87 -4 -1 -16 -9 -28 -18z"/>
<path d="M17245 27044 c-187 -107 -347 -199 -355 -204 -12 -7 -12 -11 -1 -24
8 -9 12 -18 10 -20 -2 -1 -141 -54 -309 -116 -536 -199 -678 -275 -848 -455
-132 -139 -213 -326 -241 -555 -14 -108 -14 -388 -1 -521 52 -514 242 -1180
607 -2119 207 -532 310 -913 377 -1395 68 -494 81 -988 51 -1925 -8 -250 -17
-621 -20 -825 -7 -445 -29 -747 -126 -1720 -175 -1762 -416 -3586 -694 -5240
-147 -875 -182 -1275 -192 -2195 -12 -1067 53 -2194 202 -3505 14 -121 28
-230 30 -243 l5 -22 373 0 373 0 58 333 c280 1606 834 4552 1416 7517 245
1253 555 2794 558 2778 2 -8 -8 -404 -22 -879 -97 -3282 -131 -5053 -107
-5614 45 -1083 187 -2223 432 -3475 39 -201 125 -608 135 -642 5 -17 32 -18
374 -18 l368 0 6 73 c3 39 10 167 16 282 14 267 51 874 90 1440 99 1461 160
2429 310 4895 135 2224 199 3260 206 3308 4 34 11 45 34 57 41 21 98 73 130
117 26 36 27 38 14 100 -9 41 -14 140 -14 284 0 243 -6 282 -63 386 l-31 57
13 203 c7 112 15 205 16 207 2 2 83 -1 179 -5 l176 -9 9 25 c18 44 79 311 106
455 76 413 144 1024 175 1574 6 102 12 186 13 187 1 1 103 -16 227 -37 124
-21 234 -39 246 -39 16 0 55 64 208 341 103 188 186 342 184 343 -99 46 -744
370 -793 397 l-71 40 -22 302 c-50 666 -62 1231 -62 2894 0 760 -4 1322 -10
1415 -39 571 -147 929 -334 1106 -102 96 -168 118 -601 198 -389 71 -366 64
-351 104 4 11 -60 59 -234 174 -199 132 -243 157 -264 152 -45 -11 -102 -100
-226 -349 -88 -177 -139 -268 -192 -339 l-73 -96 -25 18 c-31 23 -321 317
-570 579 -270 284 -455 442 -514 440 -12 0 -174 -88 -361 -195z"/>
<path d="M31500 26903 c-330 -337 -790 -934 -885 -1146 -17 -37 -34 -67 -39
-67 -5 0 -32 19 -60 43 -28 23 -59 48 -68 55 -15 12 -25 -1 -96 -120 -394
-664 -758 -1550 -1082 -2633 -92 -308 -89 -299 -95 -293 -19 18 -85 477 -139
968 -82 734 -135 1402 -158 1987 l-12 312 -27 -16 c-16 -9 -54 -41 -86 -70
-31 -29 -58 -53 -59 -53 -4 0 -22 95 -35 175 -6 39 -14 232 -18 430 -5 198
-12 368 -16 378 -10 23 -15 22 -200 -45 -189 -67 -441 -191 -542 -266 -195
-145 -271 -254 -351 -502 -126 -391 -154 -781 -106 -1500 37 -565 100 -925
329 -1880 82 -344 153 -659 175 -785 119 -659 135 -807 235 -2280 20 -286 40
-585 45 -665 5 -80 27 -361 49 -625 107 -1270 198 -2587 471 -6835 86 -1340
138 -2118 190 -2865 22 -313 58 -822 80 -1130 48 -688 100 -1495 100 -1566 0
-5 43 -9 95 -9 l94 0 11 -42 c6 -24 13 -50 15 -58 7 -23 35 -271 35 -305 0
-29 -2 -31 -33 -27 -46 5 -84 -29 -147 -133 -28 -46 -75 -105 -105 -133 -81
-74 -273 -184 -446 -256 -188 -77 -227 -97 -305 -152 -97 -68 -140 -146 -132
-239 l3 -40 80 -7 c126 -12 900 -11 1115 2 287 16 460 37 490 59 37 27 36 71
-4 183 -50 138 -63 193 -86 378 -11 91 -25 185 -31 210 -7 34 -6 76 6 165 8
66 18 182 22 258 l6 137 33 0 c38 0 34 -11 84 208 298 1315 481 2617 531 3777
23 529 -11 2213 -106 5288 -14 439 -25 828 -24 865 l1 67 13 -60 c36 -157 315
-1480 475 -2250 587 -2823 1246 -6127 1505 -7545 30 -168 58 -315 60 -327 5
-20 12 -23 49 -23 54 0 50 14 67 -279 11 -196 10 -216 -5 -242 -10 -16 -30
-61 -46 -99 -16 -39 -39 -84 -50 -100 -28 -39 -173 -151 -285 -220 -187 -114
-251 -177 -280 -273 -18 -62 -19 -128 -2 -149 17 -23 306 -40 682 -40 387 0
581 19 613 60 20 27 15 49 -57 216 -59 138 -75 186 -106 335 -20 95 -46 199
-57 229 -20 55 -21 58 -4 146 18 99 41 255 51 354 l7 62 94 0 c52 0 94 2 94 5
0 3 15 130 34 283 188 1510 252 3094 171 4212 -30 406 -66 685 -149 1145 -252
1391 -513 3215 -680 4760 -8 71 -11 132 -7 135 8 5 121 279 197 477 65 170
130 456 150 660 6 65 11 75 104 218 354 547 935 1554 1179 2045 130 263 184
404 236 620 26 108 71 397 64 405 -3 2 -33 -5 -68 -15 -335 -105 -801 -101
-1236 10 -60 15 -117 29 -124 31 -35 9 -124 -378 -201 -871 -23 -146 -55 -341
-71 -435 -16 -93 -63 -366 -104 -605 -121 -711 -147 -854 -170 -930 -5 -15
-97 -90 -111 -90 -3 0 5 13 19 30 20 23 27 46 33 107 11 119 -3 895 -27 1478
-16 410 -22 745 -26 1585 l-6 1065 -22 -85 c-37 -135 -64 -198 -104 -241 -32
-33 -44 -39 -79 -39 -35 0 -48 6 -80 38 -132 132 -256 563 -307 1072 -23 218
-30 637 -16 858 28 443 81 724 215 1137 35 109 59 204 66 265 31 248 123 480
289 726 166 248 265 349 413 424 l78 39 -118 74 c-314 199 -533 306 -922 452
-63 24 -122 46 -130 49 -10 4 -46 -26 -110 -91z"/>
<path d="M25635 21929 c-167 -91 -291 -165 -605 -364 -140 -89 -318 -199 -395
-245 -77 -45 -295 -178 -485 -295 -190 -117 -417 -254 -505 -305 l-160 -93
-45 10 c-25 6 -107 27 -182 46 -236 62 -424 67 -591 13 -96 -30 -380 -180
-411 -216 -26 -31 -29 -53 -48 -300 -15 -203 -15 -216 7 -240 37 -41 135 -18
202 47 54 53 96 139 127 261 12 51 26 95 29 98 14 14 212 -42 515 -146 396
-135 426 -147 532 -215 l66 -42 32 47 c51 74 81 97 139 108 34 6 50 6 46 0 -3
-6 2 -8 13 -4 48 14 240 57 349 76 231 41 592 111 875 170 157 33 364 73 460
89 314 54 528 116 726 210 135 64 411 243 393 253 -166 97 -213 137 -390 336
-214 241 -401 494 -510 692 -24 44 -46 80 -49 80 -3 0 -63 -32 -135 -71z"/>
<path d="M22088 19859 c-103 -54 -238 -335 -238 -495 0 -53 1 -54 53 -93 65
-49 143 -85 222 -101 33 -6 90 -18 127 -25 38 -8 127 -43 205 -79 257 -121
341 -123 514 -10 151 99 218 220 186 337 l-8 28 30 -15 c16 -9 42 -27 58 -40
l30 -25 23 24 22 24 -38 10 c-22 5 -61 15 -89 22 -27 6 -58 19 -68 28 -50 43
-150 0 -259 -111 -38 -37 -68 -67 -68 -65 0 2 14 41 31 88 61 166 69 292 22
327 -79 58 -165 -3 -287 -206 -37 -61 -69 -112 -72 -112 -2 0 3 17 12 38 35
80 75 218 81 277 7 79 -9 130 -47 150 -91 47 -180 -15 -275 -193 -25 -48 -43
-73 -40 -57 31 142 36 175 31 214 -3 25 -14 53 -23 63 -22 24 -87 23 -135 -3z"/>
<path d="M23508 19698 c9 -9 15 -9 24 0 9 9 7 12 -12 12 -19 0 -21 -3 -12 -12z"/>
<path d="M16029 5517 c-69 -46 -108 -134 -145 -327 -37 -192 -59 -268 -112
-397 -101 -241 -99 -248 63 -274 170 -26 721 -28 1040 -3 128 10 128 10 123
103 -9 140 -68 218 -266 348 -115 75 -237 169 -279 214 -20 22 -38 59 -106
213 -27 62 -85 119 -135 134 -66 20 -144 15 -183 -11z"/>
<path d="M19420 5508 c-14 -5 -38 -22 -55 -37 -27 -26 -41 -30 -145 -40 -216
-22 -197 -16 -209 -75 -6 -28 -18 -116 -27 -196 -19 -177 -33 -245 -79 -379
-40 -120 -45 -179 -16 -205 39 -36 323 -63 781 -75 293 -8 859 1 880 14 5 3
10 33 10 66 0 146 -104 242 -404 373 -220 96 -381 193 -474 286 -23 24 -67 84
-96 134 -30 50 -62 99 -72 108 -30 26 -66 37 -94 26z"/>
</g>
</svg>
